<svg xmlns="http://www.w3.org/2000/svg" xmlns:xlink="http://www.w3.org/1999/xlink" version="1.1" x="0px" y="0px" viewBox="-1224.559 -342.255 96 120" enable-background="new -1224.559 -342.255 96 96" xml:space="preserve"><path fill="#000000" d="M-1176.351-261.109c0.14,0,0.279-0.039,0.401-0.116l38.094-24.085l2.912-1.099  c0.388-0.146,0.583-0.579,0.437-0.966c-0.096-0.256-0.322-0.417-0.573-0.461v-2.576l0.883-0.329c0.286-0.106,0.479-0.375,0.488-0.68  c0.01-0.305-0.167-0.585-0.445-0.709l-6.98-3.102v-1.129l2.468-0.31c0.411-0.052,0.703-0.427,0.651-0.837  c-0.051-0.411-0.429-0.703-0.837-0.651l-0.157,0.02v-3.24l0.338-0.041c0.291-0.034,0.534-0.234,0.625-0.512  c0.091-0.277,0.012-0.583-0.202-0.782l-5.52-5.133l4.297-1.792c0.002-0.001,0.003-0.003,0.006-0.004  c0.027-0.012,0.046-0.034,0.071-0.048c0.064-0.036,0.128-0.074,0.181-0.13c0.004-0.004,0.009-0.005,0.013-0.01  c0.026-0.029,0.036-0.064,0.056-0.096c0.03-0.046,0.064-0.091,0.083-0.141c0.017-0.045,0.02-0.094,0.028-0.142  c0.008-0.047,0.021-0.093,0.019-0.141c-0.001-0.054-0.018-0.108-0.032-0.162c-0.009-0.036-0.007-0.072-0.021-0.107  c-0.002-0.005-0.007-0.009-0.01-0.014c-0.021-0.047-0.055-0.083-0.084-0.124c-0.028-0.041-0.051-0.083-0.088-0.119  c-0.004-0.004-0.006-0.01-0.01-0.014c-1.242-1.11-1.873-2.304-1.875-3.548c-0.004-2.156,1.857-3.859,1.876-3.876  c0.013-0.012,0.018-0.028,0.03-0.041c0.049-0.051,0.091-0.106,0.124-0.166c0.014-0.025,0.024-0.051,0.035-0.078  c0.023-0.059,0.038-0.12,0.045-0.182c0.003-0.027,0.008-0.053,0.009-0.08c0-0.017,0.006-0.032,0.005-0.048  c-0.003-0.059-0.02-0.114-0.035-0.168c-0.004-0.015-0.005-0.032-0.01-0.046c-0.03-0.085-0.077-0.165-0.139-0.237  c-0.003-0.003-0.004-0.008-0.007-0.012c-0.01-0.011-0.024-0.016-0.035-0.026c-0.052-0.052-0.109-0.094-0.171-0.127  c-0.026-0.015-0.054-0.026-0.082-0.037c-0.025-0.01-0.047-0.026-0.073-0.033l-28.5-7.775c-0.139-0.038-0.288-0.035-0.426,0.009  l-42.25,13.525c-0.013,0.004-0.022,0.013-0.035,0.018c-0.028,0.011-0.054,0.026-0.08,0.041c-0.053,0.028-0.103,0.06-0.147,0.099  c-0.023,0.021-0.045,0.042-0.065,0.065c-0.041,0.045-0.073,0.096-0.102,0.15c-0.013,0.025-0.028,0.048-0.039,0.074  c-0.032,0.082-0.053,0.169-0.054,0.261c0,0.001,0,0.003,0,0.004c0,0.001,0,0.002,0,0.003V-305c0,0.309,0.19,0.587,0.478,0.699  l4.162,1.618l-6.847,1.321c-0.019,0.004-0.032,0.02-0.05,0.025c-0.099,0.027-0.19,0.071-0.268,0.134  c-0.016,0.013-0.036,0.021-0.051,0.034c-0.086,0.082-0.149,0.186-0.189,0.301c-0.004,0.011-0.015,0.017-0.018,0.028  c-0.021,0.069-0.03,0.14-0.03,0.21c0,0.001-0.001,0.002-0.001,0.004v5.615c0,0.197,0.077,0.386,0.215,0.526l0.528,0.537  l-3.607,1.654c-0.012,0.005-0.017,0.018-0.028,0.023c-0.094,0.049-0.172,0.117-0.236,0.197c-0.021,0.026-0.039,0.055-0.057,0.084  c-0.047,0.079-0.077,0.167-0.093,0.26c-0.003,0.021-0.02,0.038-0.021,0.06c0,0.008,0.005,0.015,0.004,0.023  c0,0.012-0.007,0.022-0.007,0.034v4.5c0,0.251,0.126,0.486,0.335,0.625l0.688,0.457l-2.686,1.561  c-0.05,0.029-0.093,0.066-0.134,0.105c-0.007,0.006-0.016,0.011-0.022,0.017c-0.06,0.061-0.106,0.133-0.143,0.211  c-0.009,0.021-0.016,0.042-0.023,0.063c-0.024,0.067-0.039,0.139-0.043,0.214c-0.001,0.014-0.008,0.024-0.008,0.038v3.625  c0,0.299,0.178,0.569,0.452,0.688l42.31,18.336C-1176.553-261.13-1176.452-261.109-1176.351-261.109z M-1136.579-287.396  l-48.989,18.479v-2.714l48.989-18.225V-287.396z M-1150.844-280.412l-25.548,14.379l-5.802-2.554L-1150.844-280.412z   M-1140.812-293.448c-0.09-0.012-0.183-0.011-0.276,0.012l-0.046,0.011v-0.166L-1140.812-293.448z M-1140.509-297.952l-38.587,4.843  l11.742-4.899l26.845-3.194V-297.952z M-1142.634-296.174v1.414v0.001v1.705l-53.44,13.222v-5.126l40.95-9.648L-1142.634-296.174z   M-1140.455-302.719l-21.834,2.598l17.001-7.093L-1140.455-302.719z M-1141.067-310.6l-39.236,16.369  c-3.407-3.833-1.049-7.513-0.49-8.268l38.892-14.76c-0.408,0.785-0.732,1.742-0.733,2.809  C-1142.635-313.08-1142.103-311.791-1141.067-310.6z M-1201.471-300.68l10.282,3.999l-8.03,0.956L-1201.471-300.68z   M-1199.556-294.175v3.24l-4.956-10.928l1.039,0.404l3.115,6.853c0.123,0.27,0.391,0.439,0.682,0.439c0.03,0,0.06-0.002,0.089-0.005  L-1199.556-294.175z M-1198.056-294.354l9.841-1.171l6.92,2.691l-16.761,2.104V-294.354z M-1168.242-325.868l26.062,7.11  l-39.092,14.836l-26.85-9.179L-1168.242-325.868z M-1209.759-305.513v-6.563l27.341,9.348c-0.831,1.435-2.057,4.461-0.26,7.747  L-1209.759-305.513z M-1205.9-301.293l5.375,11.853c0.123,0.271,0.392,0.44,0.683,0.44c0.031,0,0.063-0.002,0.094-0.006  l30.629-3.844l-27.884,6.569l-0.122,0.029l-0.222,0.052l-14.42-13.962L-1205.9-301.293z M-1212.574-298.855l14.479,14.019  c0.141,0.137,0.329,0.211,0.521,0.211v4.552l-15-15.244V-298.855z M-1212.212-292.81l9.057,9.204l-11.93-7.886L-1212.212-292.81z   M-1214.958-285.104l9.364,6.216l-11.415-5.025L-1214.958-285.104z M-1217.91-280.688v-1.983l19.646,8.648l8.022,5.325  L-1217.91-280.688z M-1187.068-268.391l-28.807-19.123v-2.703l17.782,11.755l0.234,0.238c0.118,0.12,0.273,0.182,0.435,0.204  l10.136,6.7c0.068,0.045,0.143,0.076,0.22,0.096V-268.391z M-1195.371-278.46l54.644-13.52c0.402-0.1,0.647-0.506,0.548-0.908  c-0.042-0.168-0.144-0.299-0.27-0.398l4.005,1.78l-50.336,18.726L-1195.371-278.46z M-1186.273-267.048  c0.148-0.009,0.279-0.064,0.392-0.147l1.683-0.635l7.546,3.322c0.097,0.042,0.2,0.063,0.302,0.063c0.127,0,0.254-0.032,0.368-0.096  l22.503-12.666l-22.937,14.502l-9.945-4.31L-1186.273-267.048z"/><text x="-1224.559" y="-231.255" fill="#000000" font-size="5px" font-weight="bold" font-family="'Helvetica Neue', Helvetica, Arial-Unicode, Arial, Sans-serif">Created by faisalovers</text><text x="-1224.559" y="-226.255" fill="#000000" font-size="5px" font-weight="bold" font-family="'Helvetica Neue', Helvetica, Arial-Unicode, Arial, Sans-serif">from the Noun Project</text></svg>