<svg xmlns="http://www.w3.org/2000/svg" xmlns:xlink="http://www.w3.org/1999/xlink" version="1.1" x="0px" y="0px" viewBox="0 0 100 125" style="enable-background:new 0 0 100 100;" xml:space="preserve"><style type="text/css">
	.st0{fill:none;stroke:#000000;stroke-width:4;stroke-linejoin:round;stroke-miterlimit:10;}
</style><g><path d="M40.5,58.1c0.1-0.2,0.1-0.3,0.2-0.5l0.6-6.1c0.1-0.8-0.5-1.6-1.3-1.6l-6.1-0.6c-0.4,0-0.8,0.1-1.1,0.3   c-0.3,0.3-0.5,0.6-0.5,1l-0.6,6.1c0,0.2,0,0.4,0.1,0.6c-1.7,1.5-2.9,3.8-3.2,6.5c-0.2,2.3,0.2,4.5,1.2,6.3c1.1,1.9,2.8,3.1,4.7,3.3   c0.2,0,0.4,0,0.6,0c1.7,0,3.4-0.8,4.7-2.3c1.4-1.5,2.3-3.6,2.5-5.9C42.6,62.4,41.8,59.9,40.5,58.1z M35.1,52.4l3.1,0.3l-0.3,3.1   l-1.5-0.2c0,0,0,0,0,0s0,0,0,0l-1.5-0.2L35.1,52.4z M39.3,64.8c-0.2,1.6-0.8,3.1-1.7,4.2c-0.8,0.9-1.8,1.4-2.8,1.3   c-1-0.1-1.8-0.7-2.5-1.8c-0.7-1.2-1-2.8-0.8-4.4c0.3-3,2.2-5.4,4.3-5.4c0.1,0,0.2,0,0.3,0l0,0C38.1,58.8,39.6,61.7,39.3,64.8z"/><path d="M27.2,65.9c-0.2-0.8-1.1-1.2-1.9-1l-9,2.7c-0.8,0.2-1.2,1.1-1,1.9c0.2,0.7,0.8,1.1,1.4,1.1c0.1,0,0.3,0,0.4-0.1l9-2.7   C27,67.5,27.4,66.7,27.2,65.9z"/><path d="M53.7,71.4l-8.3-4.5c-0.7-0.4-1.6-0.1-2,0.6c-0.4,0.7-0.1,1.6,0.6,2l8.3,4.5c0.2,0.1,0.5,0.2,0.7,0.2   c0.5,0,1.1-0.3,1.3-0.8C54.7,72.7,54.4,71.8,53.7,71.4z"/><path d="M34.4,74.7c-0.8-0.1-1.6,0.5-1.6,1.3l-0.9,8.7c-0.1,0.8,0.5,1.6,1.3,1.6c0.1,0,0.1,0,0.2,0c0.8,0,1.4-0.6,1.5-1.3l0.9-8.7   C35.8,75.6,35.2,74.8,34.4,74.7z"/><path d="M42.6,73.4c-0.5-0.6-1.5-0.7-2.1-0.2c-0.6,0.5-0.7,1.5-0.2,2.1l2.5,2.9c0.3,0.3,0.7,0.5,1.1,0.5c0.3,0,0.7-0.1,1-0.4   c0.6-0.5,0.7-1.5,0.2-2.1L42.6,73.4z"/><path d="M26.7,71.7L23.6,74c-0.7,0.5-0.8,1.4-0.3,2.1c0.3,0.4,0.7,0.6,1.2,0.6c0.3,0,0.6-0.1,0.9-0.3l3.1-2.3   c0.7-0.5,0.8-1.4,0.3-2.1C28.3,71.3,27.3,71.2,26.7,71.7z"/><path d="M62.4,34.2c-1,2.6-0.9,5.2,0,7.3c-0.1,0.1-0.2,0.3-0.3,0.5L60,47.7c-0.1,0.4-0.1,0.8,0,1.1c0.2,0.4,0.5,0.6,0.8,0.8   l5.7,2.1c0.2,0.1,0.3,0.1,0.5,0.1c0.6,0,1.2-0.4,1.4-1l2.1-5.7c0.1-0.2,0.1-0.4,0.1-0.5c0.3-0.1,0.6-0.3,0.8-0.5   c1.7-1.1,3.1-2.9,3.9-5.1c1.7-4.6,0.2-9.4-3.4-10.7c-1.8-0.7-3.8-0.4-5.7,0.8C64.6,30.3,63.2,32.1,62.4,34.2z M66.2,48.4l-2.9-1.1   l1.1-2.9l2.9,1.1L66.2,48.4z M67.9,31.7c1-0.7,2.1-0.9,3-0.5c2,0.7,2.8,3.9,1.7,6.9c-0.6,1.5-1.5,2.8-2.7,3.6c-1,0.7-2.1,0.9-3,0.5   c-2-0.7-2.8-3.9-1.7-6.9C65.8,33.7,66.7,32.4,67.9,31.7z"/><path d="M77.2,37.3c0,0.8,0.7,1.4,1.5,1.4c0,0,0,0,0.1,0l9.4-0.3c0.8,0,1.5-0.7,1.4-1.6c0-0.8-0.7-1.5-1.6-1.4l-9.4,0.3   C77.8,35.7,77.1,36.4,77.2,37.3z"/><path d="M59.8,31.7c0.3,0.3,0.7,0.4,1,0.4c0.4,0,0.8-0.2,1.1-0.5c0.6-0.6,0.5-1.6-0.1-2.1l-6.9-6.4c-0.6-0.6-1.6-0.5-2.1,0.1   c-0.6,0.6-0.5,1.6,0.1,2.1L59.8,31.7z"/><path d="M72.5,26.9C72.6,27,72.8,27,73,27c0.6,0,1.2-0.4,1.4-1l3-8.2c0.3-0.8-0.1-1.6-0.9-1.9c-0.8-0.3-1.6,0.1-1.9,0.9l-3,8.2   C71.3,25.7,71.7,26.6,72.5,26.9z"/><path d="M64.1,26.2c0.3,0.5,0.8,0.8,1.3,0.8c0.2,0,0.5-0.1,0.7-0.2c0.7-0.4,1-1.3,0.7-2l-1.7-3.4c-0.4-0.7-1.3-1-2-0.7   c-0.7,0.4-1,1.3-0.7,2L64.1,26.2z"/><path d="M77.2,31c0.2,0.6,0.8,0.9,1.4,0.9c0.2,0,0.4,0,0.6-0.1l3.5-1.5c0.8-0.3,1.1-1.2,0.8-2c-0.3-0.8-1.2-1.1-2-0.8L78,29   C77.2,29.3,76.9,30.2,77.2,31z"/><path d="M90.9,55.7c-0.4-0.7-1.4-0.9-2.1-0.5c-6.1,3.7-14.2,2.8-24.1-2.7C30.9,33.8,9.2,52.6,9,52.8c-0.6,0.6-0.7,1.5-0.1,2.1   c0.6,0.6,1.5,0.7,2.1,0.1c0.2-0.2,20.2-17.5,52.3,0.2c6.4,3.5,12.2,5.3,17.3,5.3c3.6,0,6.9-0.9,9.9-2.7   C91.1,57.4,91.3,56.4,90.9,55.7z"/><path d="M12,43c0.1,0.1,0.2,0.1,0.3,0.1c0,0.1,0,0.1,0,0.2l1.4,3.4c0.2,0.6,0.8,0.9,1.4,0.9c0.2,0,0.4,0,0.6-0.1L19,46   c0.4-0.2,0.7-0.5,0.8-0.8c0.1-0.4,0.1-0.8,0-1.1l-1.4-3.4c0,0,0-0.1-0.1-0.1c0-0.1,0.1-0.2,0.1-0.3c0.3-1.3,0.2-2.8-0.4-4.2   c-0.6-1.4-1.6-2.5-2.7-3.2c-1.3-0.8-2.7-0.9-4-0.4c-1.2,0.5-2.1,1.7-2.5,3.1c-0.3,1.3-0.2,2.8,0.4,4.2C9.8,41.2,10.8,42.3,12,43z    M11.7,36.3c0.1-0.3,0.3-0.9,0.7-1.1c0.5-0.2,1,0,1.3,0.2c0.6,0.4,1.2,1,1.5,1.8c0.3,0.8,0.4,1.6,0.3,2.3c-0.1,0.3-0.3,0.9-0.7,1.1   c-0.5,0.2-1,0-1.3-0.2c-0.6-0.4-1.1-1-1.5-1.8C11.7,37.9,11.6,37,11.7,36.3z"/><path d="M80.4,67.5c0,0,0-0.1,0-0.1l0.4-3.6c0-0.4-0.1-0.8-0.3-1.1s-0.6-0.5-1-0.6L76,61.6c-0.8-0.1-1.6,0.5-1.7,1.3l-0.4,3.6   c0,0,0,0.1,0,0.1c-1,1-1.8,2.4-2,4.1c-0.4,3.3,1.4,6.1,4,6.4c0.2,0,0.3,0,0.5,0c1.2,0,2.3-0.5,3.2-1.5c0.9-1,1.5-2.3,1.7-3.8   c0.2-1.5-0.1-3-0.8-4.1C80.6,67.7,80.5,67.6,80.4,67.5z M78.4,71.5L78.4,71.5c-0.1,0.8-0.4,1.6-0.9,2.1c-0.2,0.2-0.7,0.6-1.2,0.5   c-0.8-0.1-1.6-1.4-1.4-3.1c0.2-1.6,1.2-2.7,2-2.7c0,0,0.1,0,0.1,0l0,0c0.5,0.1,0.8,0.5,1,0.8C78.4,69.9,78.5,70.7,78.4,71.5z"/></g><text x="0" y="115" fill="#000000" font-size="5px" font-weight="bold" font-family="'Helvetica Neue', Helvetica, Arial-Unicode, Arial, Sans-serif">Created by Visual Glow</text><text x="0" y="120" fill="#000000" font-size="5px" font-weight="bold" font-family="'Helvetica Neue', Helvetica, Arial-Unicode, Arial, Sans-serif">from the Noun Project</text></svg>