<svg xmlns:dc="http://purl.org/dc/elements/1.1/" xmlns:cc="http://creativecommons.org/ns#" xmlns:rdf="http://www.w3.org/1999/02/22-rdf-syntax-ns#" xmlns:svg="http://www.w3.org/2000/svg" xmlns="http://www.w3.org/2000/svg" xmlns:sodipodi="http://sodipodi.sourceforge.net/DTD/sodipodi-0.dtd" xmlns:inkscape="http://www.inkscape.org/namespaces/inkscape" version="1.1" x="0px" y="0px" viewBox="0 0 100 125"><g transform="translate(0,-952.36218)"><path style="font-size:medium;font-style:normal;font-variant:normal;font-weight:normal;font-stretch:normal;text-indent:0;text-align:start;text-decoration:none;line-height:normal;letter-spacing:normal;word-spacing:normal;text-transform:none;direction:ltr;block-progression:tb;writing-mode:lr-tb;text-anchor:start;baseline-shift:baseline;opacity:1;color:#000000;fill:#000000;fill-opacity:1;stroke:none;stroke-width:3.99999976000000010;marker:none;visibility:visible;display:inline;overflow:visible;enable-background:accumulate;font-family:Sans;-inkscape-font-specification:Sans" d="M 57.0625 13 A 2.0001999 2.0001999 0 0 0 56.75 13.0625 L 23.90625 22.6875 A 2.0001999 2.0001999 0 0 0 22.46875 24.59375 L 22.46875 66.21875 C 22.46875 66.87045 22.069514 67.62895 20.96875 68.34375 C 19.867986 69.05845 18.174897 69.5625 16.25 69.5625 C 14.325103 69.5625 12.601389 69.05765 11.5 68.34375 C 10.398611 67.62975 10 66.85985 10 66.21875 C 10 65.57765 10.398602 64.839 11.5 64.125 C 12.601398 63.411 14.325118 62.90625 16.25 62.90625 A 2.0001999 2.0001999 0 1 0 16.25 58.90625 C 13.624439 58.90625 11.193141 59.56225 9.3125 60.78125 C 7.4318592 62.00035 6 63.91015 6 66.21875 C 6 68.52725 7.4318507 70.4684 9.3125 71.6875 C 11.193149 72.9066 13.624454 73.5625 16.25 73.5625 C 18.875547 73.5625 21.274966 72.9091 23.15625 71.6875 C 25.037534 70.4659 26.46875 68.53025 26.46875 66.21875 L 26.46875 37.84375 L 55.3125 29.40625 L 55.3125 57.5 C 55.3125 58.1517 54.913256 58.87895 53.8125 59.59375 C 52.711744 60.30845 50.987426 60.84375 49.0625 60.84375 C 47.137573 60.84375 45.445122 60.30765 44.34375 59.59375 C 43.242378 58.87975 42.84375 58.1413 42.84375 57.5 C 42.84375 56.859 43.242351 56.12025 44.34375 55.40625 C 45.445149 54.69235 47.137603 54.15625 49.0625 54.15625 A 2.0001999 2.0001999 0 1 0 49.0625 50.15625 C 46.436953 50.15625 44.03689 50.8435 42.15625 52.0625 C 40.27561 53.2815 38.84375 55.1915 38.84375 57.5 C 38.84375 59.8086 40.275583 61.74965 42.15625 62.96875 C 44.036917 64.18775 46.436983 64.84375 49.0625 64.84375 C 51.688017 64.84375 54.118708 64.19025 56 62.96875 C 57.881292 61.74715 59.3125 59.8116 59.3125 57.5 L 59.3125 15 A 2.0001999 2.0001999 0 0 0 57.0625 13 z M 55.3125 17.65625 L 55.3125 25.25 L 26.46875 33.71875 L 26.46875 26.125 L 55.3125 17.65625 z M 74.375 36.75 A 2.0001999 2.0001999 0 0 0 72.4375 38.75 L 72.4375 79.625 C 72.4375 80.2767 72.03826 81.0352 70.9375 81.75 C 69.83674 82.4648 68.14366 83 66.21875 83 C 64.293839 83 62.57013 82.4639 61.46875 81.75 C 60.36737 81.0361 59.96875 80.29755 59.96875 79.65625 C 59.96875 79.01525 60.367356 78.2764 61.46875 77.5625 C 62.570144 76.8486 64.293854 76.3125 66.21875 76.3125 A 2.0001999 2.0001999 0 1 0 66.21875 72.3125 C 63.593204 72.3125 61.161894 72.9684 59.28125 74.1875 C 57.400606 75.4066 55.96875 77.34775 55.96875 79.65625 C 55.96875 81.96485 57.400592 83.87465 59.28125 85.09375 C 61.161908 86.31275 63.593219 87 66.21875 87 C 68.844281 87 71.243712 86.31535 73.125 85.09375 C 75.006288 83.87205 76.4375 81.9366 76.4375 79.625 L 76.4375 41.3125 C 78.882323 41.91129 81.849175 43.04399 84.4375 45.03125 C 86.843928 46.87886 88.707455 49.1562 89.53125 51.75 L 80.71875 47.96875 A 2.0023939 2.0023939 0 1 0 79.15625 51.65625 L 91.21875 56.8125 A 2.0001999 2.0001999 0 0 0 94 55.0625 C 94.191259 49.4615 90.854802 44.93061 86.875 41.875 C 82.895198 38.81939 78.248351 37.00187 74.59375 36.75 A 2.0001999 2.0001999 0 0 0 74.375 36.75 z " transform="translate(0,952.36218)"/></g><text x="0" y="115" fill="#000000" font-size="5px" font-weight="bold" font-family="'Helvetica Neue', Helvetica, Arial-Unicode, Arial, Sans-serif">Created by counloucon</text><text x="0" y="120" fill="#000000" font-size="5px" font-weight="bold" font-family="'Helvetica Neue', Helvetica, Arial-Unicode, Arial, Sans-serif">from the Noun Project</text></svg>