<svg xmlns="http://www.w3.org/2000/svg" xmlns:xlink="http://www.w3.org/1999/xlink" version="1.1" x="0px" y="0px" viewBox="0 0 64 80" style="enable-background:new 0 0 64 64;" xml:space="preserve"><style type="text/css">
	.st0{fill:none;stroke:#000000;stroke-width:2;stroke-miterlimit:10;}
	.st1{fill:none;stroke:#000000;stroke-width:2;stroke-linecap:round;stroke-miterlimit:10;}
	.st2{fill:none;stroke:#000000;stroke-linecap:round;stroke-miterlimit:10;}
	.st3{fill:none;stroke:#000000;stroke-width:2;stroke-linecap:square;stroke-miterlimit:10;}
	.st4{fill:none;stroke:#000000;stroke-width:4;stroke-linecap:round;stroke-miterlimit:10;}
	.st5{fill:none;stroke:#000000;stroke-linecap:round;stroke-miterlimit:10;stroke-dasharray:3.3688,3.3688;}
	.st6{fill:none;stroke:#000000;stroke-linecap:round;stroke-miterlimit:10;stroke-dasharray:3.7993,3.7993;}
	.st7{fill:none;stroke:#000000;stroke-width:2;stroke-linecap:round;stroke-linejoin:round;stroke-miterlimit:10;}
	.st8{fill:none;stroke:#000000;stroke-linecap:round;stroke-miterlimit:10;stroke-dasharray:3.893,3.893;}
	.st9{stroke:#000000;stroke-width:2;stroke-linecap:round;stroke-miterlimit:10;}
	.st10{fill:none;stroke:#000000;stroke-width:2;stroke-linecap:round;stroke-linejoin:bevel;stroke-miterlimit:10;}
	.st11{fill:none;stroke:#000000;stroke-linecap:round;stroke-miterlimit:10;stroke-dasharray:5,6;}
	.st12{fill:none;stroke:#000000;stroke-width:7;stroke-linecap:round;stroke-miterlimit:10;}
</style><g><circle class="st7" cx="40.9" cy="7.5" r="6.5"/><path class="st7" d="M54.1,19.6c-1.8-0.5-3.6,0.6-4.1,2.5c-3.2,2.5-7.7,0-10-2.2c-2.3-2.1-5.1-4.7-9.4-4.7c-5.6,0-10,2.8-12.3,7.7   c-1.6,3.4-1.7,6.8-1.7,7.2c0,1.9,1.5,3.4,3.3,3.4c1.8,0,3.2-1.6,3.5-3.3c0.9-5.4,2.9-7.8,5.7-8.1c-0.5,10.9-4,17.7-9.1,17.7   c-4.2,0-5.9-4.3-6-4.5c-0.6-1.7-2.6-2.6-4.3-2c-1.8,0.6-2.7,2.6-2,4.3c0.1,0.4,3.3,9,12.4,9c5.8,0,9.8-3.5,12.3-8.6   c0.7-1.3,2.3-1.4,3.5,0.9c2.7,5.7,2.8,16.7,2.5,20.5c-0.1,1.9,1.4,3.6,3.4,3.6s3.3-1.4,3.4-3.1c0-0.6,1-15.5-3.2-23.9   c-1.2-2.5-0.7-4.9,0-6.6c1.4,0.5,2.9,0.9,4.7,0.9c6.7,0,9.4-4,10-6.4C57,21.9,55.9,20.1,54.1,19.6z"/></g><text x="0" y="79" fill="#000000" font-size="5px" font-weight="bold" font-family="'Helvetica Neue', Helvetica, Arial-Unicode, Arial, Sans-serif">Created by Mooms</text><text x="0" y="84" fill="#000000" font-size="5px" font-weight="bold" font-family="'Helvetica Neue', Helvetica, Arial-Unicode, Arial, Sans-serif">from the Noun Project</text></svg>