<svg xmlns="http://www.w3.org/2000/svg" xmlns:xlink="http://www.w3.org/1999/xlink" version="1.1" x="0px" y="0px" viewBox="0 0 96 120" enable-background="new 0 0 96 96" xml:space="preserve"><path d="M13.819,44.497c0,4.045,3.098,7.379,7.046,7.758v3.584v1.5V91.25h61.315V57.338v-1.5V43.747h-0.726h-7.26h-1.7h-5.561h-1.7  h-5.562h-1.698h-5.563h-1.699h-5.562h-1.7h-5.56h-1.7h-6.817c-0.077-0.804-0.275-1.574-0.579-2.289l2.838-1.527l3.055-1.644  l2.787-1.5l3.606-1.941v0l3.996-2.151l30.176-16.242L68.811,4.484L48.991,15.151l-3.34,1.798L14.82,33.544l2.423,4.502  C15.179,39.45,13.819,41.817,13.819,44.497z M61.78,9.972l4.888-2.631l-0.015,12.037l-4.888,2.631L61.78,9.972z M48.993,16.854  l4.888-2.631L53.866,26.26l-4.888,2.63L48.993,16.854z M36.207,23.736l4.888-2.631l-0.016,12.037l-4.888,2.63L36.207,23.736z   M73.39,45.247h5.55l-5.719,10.592H67.67L73.39,45.247z M58.869,45.247h5.55L58.7,55.838h-5.55L58.869,45.247z M44.346,45.247h5.551  l-5.72,10.592h-5.55L44.346,45.247z M29.135,46.528l0.691-1.281h5.55l-5.72,10.592h-5.55l3.34-6.184  C28.231,48.768,28.816,47.704,29.135,46.528z M23.42,30.619l4.075-2.193l0.813-0.438l-0.016,12.036l-0.214,0.115  c-1.079-1.596-2.737-2.765-4.666-3.222L23.42,30.619z"/><text x="0" y="111" fill="#000000" font-size="5px" font-weight="bold" font-family="'Helvetica Neue', Helvetica, Arial-Unicode, Arial, Sans-serif">Created by ahmad</text><text x="0" y="116" fill="#000000" font-size="5px" font-weight="bold" font-family="'Helvetica Neue', Helvetica, Arial-Unicode, Arial, Sans-serif">from the Noun Project</text></svg>