<svg xmlns="http://www.w3.org/2000/svg" xmlns:xlink="http://www.w3.org/1999/xlink" version="1.1" x="0px" y="0px" viewBox="0 0 100 125" style="enable-background:new 0 0 100 100;" xml:space="preserve"><g><path d="M52.4,57.7c2.7-2,5.1-3.7,6.1-5.5c4.5-7.7,10.7-26.6,15.1-41.1c2.4-7.7,0-9.7-0.5-10C72.8,1,72.5,1,72.1,1   c-0.3,0.1-0.6,0.3-0.8,0.6L30.9,71.7c-5.7-1.3-11.9,1.2-15,6.6c-3.8,6.6-1.5,15.1,5.1,18.9c2.2,1.3,4.5,1.8,6.9,1.8   c4.8,0,9.4-2.5,12-6.9c3.2-5.6,2.1-12.5-2.3-16.8c1.5-2.4,6.7-10.5,9.5-13.3C48.5,60.5,50.5,59.1,52.4,57.7z M50.3,48   c1.8,0,3.2,1.4,3.2,3.2s-1.4,3.2-3.2,3.2c-1.8,0-3.2-1.4-3.2-3.2S48.5,48,50.3,48z M33.1,88.2c-1.7,2.9-5.4,3.9-8.3,2.2   c-1.4-0.8-2.4-2.1-2.8-3.7c-0.4-1.6-0.2-3.2,0.6-4.6c0.8-1.4,2.1-2.4,3.7-2.8c0.5-0.1,1.1-0.2,1.6-0.2c1.1,0,2.1,0.3,3,0.8   C33.8,81.6,34.8,85.3,33.1,88.2z"/><path d="M40.4,50.2l8.1-14.1L28.6,1.6c-0.2-0.3-0.4-0.5-0.8-0.6c-0.3-0.1-0.7,0-1,0.1c-0.5,0.3-2.9,2.2-0.5,10   C30.4,24.5,36.1,41.6,40.4,50.2z"/><path d="M84.1,78.3c-3.1-5.4-9.3-7.9-15-6.6l-9.6-16.6c-1.4,1.6-3.4,3-5.6,4.7c-0.6,0.5-1.3,0.9-1.9,1.4c0.3,0.3,0.7,0.6,1,0.9   c2.8,2.8,8,10.9,9.5,13.3c-4.4,4.3-5.5,11.2-2.3,16.8c2.6,4.4,7.2,6.9,12,6.9c2.3,0,4.7-0.6,6.9-1.8c3.2-1.8,5.5-4.8,6.4-8.4   C86.5,85.2,86,81.5,84.1,78.3z M72.2,91.3c-3.4,0-6.1-2.7-6.1-6.1s2.7-6.1,6.1-6.1c3.4,0,6.1,2.7,6.1,6.1S75.6,91.3,72.2,91.3z"/></g><text x="0" y="115" fill="#000000" font-size="5px" font-weight="bold" font-family="'Helvetica Neue', Helvetica, Arial-Unicode, Arial, Sans-serif">Created by Jeong Min</text><text x="0" y="120" fill="#000000" font-size="5px" font-weight="bold" font-family="'Helvetica Neue', Helvetica, Arial-Unicode, Arial, Sans-serif">from the Noun Project</text></svg>