<svg xmlns="http://www.w3.org/2000/svg" data-name="Layer 1" viewBox="0 0 100 125" x="0px" y="0px"><title>all</title><g><g><g data-name="Zoom In"><g data-name="Calendar"><g><g><g><g><g><g><g><g><g data-name="Play - Orange"><g data-name="Arrow Right - Orange"><g><path d="M99.92,48.56a12.29,12.29,0,0,1-.61,1.87c-0.56,1.1-1.23,2.15-1.81,3.24a1.39,1.39,0,0,0-.22,1c1.48,3.71.64,7-1.64,10.11A1.08,1.08,0,0,0,95.41,66c1.39,3.39.62,6.51-1.3,9.44a2.37,2.37,0,0,0-.47,2.17C94.56,81.4,94,85,91.14,88a9.17,9.17,0,0,1-5,2.66,28.93,28.93,0,0,1-5.13.55c-12.68,0-25.36,0-38,0a11.64,11.64,0,0,1-6.41-2.09,2.4,2.4,0,0,0-1.9-.48c0,0.63-.07,1.23-0.15,1.83a4,4,0,0,1-3.67,3.59,7.94,7.94,0,0,1-.87,0H4.72A4.28,4.28,0,0,1,.09,89.87q0-19.78,0-39.55a4.46,4.46,0,0,1,4.68-4.74q14.27,0,28.55,0a16.08,16.08,0,0,1,2,.38,1.36,1.36,0,0,0,1-.12,30.94,30.94,0,0,0,2.91-3.25A133,133,0,0,0,49.61,25.54a6.14,6.14,0,0,0,.75-3.19c-0.13-3.29-.13-6.59-0.25-9.88A5.46,5.46,0,0,1,53,7.27a10.63,10.63,0,0,1,11.57.64,6.59,6.59,0,0,1,1.78,2.66c1.23,3,2.4,6.07,3.44,9.16a19.81,19.81,0,0,1,.42,10.38c-0.52,2.63-.9,5.29-1.35,7.93-0.15.9-.12,1,0.8,1H91.27a9.25,9.25,0,0,1,5,1.19,7.55,7.55,0,0,1,3.33,4.76c0.08,0.31.18,0.61,0.27,0.91v2.71Zm-36.21-5.4C64.49,38.53,65.28,34,66,29.47a20.13,20.13,0,0,0,.45-4.88c-0.4-4.37-2.16-8.35-3.9-12.32a3,3,0,0,0-2.23-2,6.76,6.76,0,0,0-5,.44,1.79,1.79,0,0,0-1.09,1.82q0.2,5.46.2,10.92A7.43,7.43,0,0,1,54,26a17.45,17.45,0,0,1-1.46,3c-3,4.91-6,9.84-9.08,14.69a18.82,18.82,0,0,1-5.37,6c-1.42.92-2.85,1.86-4.23,2.83a1.35,1.35,0,0,0-.55.92c0,9.89,0,19.78,0,29.66,0,0.59.25,0.65,0.76,0.71a14.42,14.42,0,0,1,2.84.59,7.87,7.87,0,0,1,1.77,1.07A8.84,8.84,0,0,0,43.78,87c12.55,0,25.09,0,37.64,0a17.07,17.07,0,0,0,2.23-.13,6.52,6.52,0,0,0,4.62-2.67c1.34-1.84,1.51-4.05.26-5.62a12.19,12.19,0,0,0-2.31-1.75,1.79,1.79,0,0,1,.64-0.69,6.47,6.47,0,0,0,4.66-4.49A4.05,4.05,0,0,0,90.24,67,16.58,16.58,0,0,0,88,65.77a2.87,2.87,0,0,1,.89-0.86,6.16,6.16,0,0,0,3.8-2.71c1.93-2.93,1.21-6-2-7.14a0.87,0.87,0,0,1-.52-0.54,0.74,0.74,0,0,1,.66-0.83,6.22,6.22,0,0,0,4.77-5.37,4,4,0,0,0-2.18-4.61,7.32,7.32,0,0,0-2.78-.52c-8.64,0-17.28,0-25.92,0h-1ZM29.58,49.82c-0.32,0-.56-0.05-0.79-0.05q-11.84,0-23.68,0a0.69,0.69,0,0,0-.85.86q0,19.21,0,38.43a0.76,0.76,0,0,0,.93.94c7.79,0,15.57,0,23.36,0,1,0,1,0,1-1.05q0-19.09,0-38.19v-0.9Z"/></g></g></g></g></g></g></g></g></g></g></g></g></g></g></g><text x="0" y="115" fill="#000000" font-size="5px" font-weight="bold" font-family="'Helvetica Neue', Helvetica, Arial-Unicode, Arial, Sans-serif">Created by i cons</text><text x="0" y="120" fill="#000000" font-size="5px" font-weight="bold" font-family="'Helvetica Neue', Helvetica, Arial-Unicode, Arial, Sans-serif">from the Noun Project</text></svg>