<svg xmlns="http://www.w3.org/2000/svg" xmlns:xlink="http://www.w3.org/1999/xlink" version="1.1" x="0px" y="0px" viewBox="0 0 100 125" enable-background="new 0 0 100 100" xml:space="preserve"><g><path fill-rule="evenodd" clip-rule="evenodd" d="M88.591,6.157c0-0.767,0.433-1.15,1.3-1.15c0.9-0.066,1.533,0.267,1.9,1   c1.133,2.567,1.5,5.184,1.1,7.851c-0.467,2.6-1.7,4.983-3.7,7.149c-1.366,1.467-2.05,2.917-2.05,4.351   c0,1.166-0.25,2.416-0.75,3.75c-0.3,0.767-0.767,1.916-1.4,3.45c-0.8,2.133-2.066,4.982-3.8,8.55   c-1.899,3.899-3.2,6.683-3.899,8.35l-9.15,21.7c-0.467,0.967-1.25,1.45-2.35,1.45c-0.967-0.4-1.768-0.483-2.4-0.25   c-0.167,1.933-0.867,3.7-2.1,5.3c-0.867,1.133-2.301,2.483-4.301,4.05c-4.333,3.367-8.449,5.417-12.35,6.15   c-3,0.5-6.05,0.25-9.15-0.75c-1.566-0.467-2.833-1.667-3.8-3.601c-0.899-1.899-1.1-3.683-0.6-5.35c0.3-1.066,0.866-2.617,1.7-4.65   c0.566-1.3,0.866-2.25,0.899-2.85c0.101-0.967,0.017-1.717-0.25-2.25c-0.333-0.7-0.933-1.283-1.8-1.75   c-1.267-0.634-2.767-1.217-4.5-1.75c-0.233-0.066-1.783-0.45-4.65-1.15c-5.5-1.333-9.467-4.85-11.899-10.55   c-3.4-7.566-4.417-14.467-3.05-20.7c1.366-6.8,4.683-12.116,9.949-15.949c0.334-0.268,1.75-1.167,4.25-2.7   c0.733-0.5,1.184-0.75,1.351-0.75c0.833,0,3.616-0.4,8.35-1.2c3.3-0.533,6.083-0.5,8.351,0.1c4.666,1.267,9.033,3.334,13.1,6.2   c7.133,5.101,12.383,12.684,15.75,22.75c0.233,0.733,0.4,1.8,0.5,3.2c0.066,1.633,0.2,2.9,0.4,3.8c1.666-3.2,2.8-5.533,3.399-7   c1.567-3.967,2.817-6.934,3.75-8.899c0.434-0.967,0.934-2.284,1.5-3.95c0.8-2.2,1.283-3.55,1.45-4.05   c0.333-0.934,0.167-1.867-0.5-2.801c-0.967-1.467-0.8-3.217,0.5-5.25c1.2-2.066,2.767-3.566,4.7-4.5   c1.433-0.699,2.433-1.35,3-1.949C88.207,8.69,88.624,7.558,88.591,6.157z M90.24,11.907c0.101-0.233-0.033-0.833-0.399-1.8   c-1.2,1.1-2.134,1.883-2.8,2.35c-1.5,0.934-2.601,1.65-3.301,2.15c-1.699,1.267-2.666,2.35-2.899,3.25   c-0.3,0.899-0.05,2.316,0.75,4.25c0.399,1.066,1.066,1.35,2,0.85c2.5-1.366,4.066-2.917,4.7-4.649   c-0.601-0.067-1.2,0.083-1.801,0.449c-0.732,0.467-1.217,0.733-1.449,0.801c-0.5,0.066-0.851-0.15-1.051-0.65   c-0.066-0.333,0.084-0.583,0.45-0.75l3.8-1.95c1.301-0.6,2.184-1.45,2.65-2.55c-0.434,0.033-1.45,0.467-3.05,1.3   c-1.167,0.667-2.283,0.733-3.351,0.2l4.801-2.35C89.891,12.507,90.207,12.207,90.24,11.907z M83.041,25.157   c0.033,0.366,0.467,0.616,1.3,0.75c0.533,0,0.8-0.267,0.8-0.8c0.033-0.7-0.3-0.983-1-0.851   C83.374,24.357,83.008,24.657,83.041,25.157z M61.891,20.157c-0.133-0.267-0.05-0.533,0.25-0.8c0.3-0.4,0.783-0.334,1.45,0.2   c4.066,3.232,6.467,6.883,7.2,10.949c0.133,1-0.2,1.567-1,1.7c-0.667,0-1.051-0.316-1.15-0.95c-0.233-2.033-0.95-3.983-2.15-5.85   c-0.866-1.333-2.199-2.9-4-4.7C62.157,20.407,61.957,20.224,61.891,20.157z M57.141,36.657c-0.8,1-1.2,1.533-1.2,1.6   c-0.6,1.467-0.3,2.634,0.9,3.5c0.6,0.434,1.133,0.551,1.6,0.351c0.434-0.167,0.684-0.617,0.75-1.351   c0.167-1.333,0.2-2.866,0.101-4.6c0-0.733,0.267-1.117,0.8-1.15c0.6-0.066,0.95,0.267,1.05,1c0.1,1.9,0.283,3.551,0.55,4.95   c0.134,0.7-0.167,1.434-0.899,2.2c-0.634,0.8-1.384,1.316-2.25,1.55c-0.834,0.233-1.65,0.167-2.45-0.2   c-0.867-0.333-1.467-0.866-1.8-1.6c-0.101-0.2-0.45-1.267-1.051-3.2c0-0.866,0.334-1.767,1-2.7c0.634-0.866,1.301-1.35,2-1.449   c0.4,0,0.7,0.083,0.9,0.25C57.407,36.007,57.407,36.29,57.141,36.657z M61.891,31.308c-2.333-4-5.217-7.284-8.65-9.851   c-5.533-4.1-10.866-6.583-16-7.45c-1.333-0.233-3.033-0.233-5.1,0c-2.6,0.233-4.3,0.351-5.1,0.351c-2.2-0.067-4.134,0.6-5.801,2   c-1.333,0.866-2.333,1.55-3,2.05c-4.133,3.667-6.767,7.733-7.899,12.2c0.767-0.267,1.767-0.884,3-1.851   c1.233-0.933,2.316-1.533,3.25-1.8c-3.267,3.2-5.15,5.117-5.65,5.75c-0.533,0.634-0.75,1.333-0.649,2.101   c0.633-0.467,1.583-1.184,2.85-2.15c1.167-0.8,2.233-1.316,3.2-1.55c-1.767,1.866-3.467,3.433-5.101,4.7   c-1.933,1.633-2.449,3.716-1.55,6.25c0.5-0.2,1.483-0.9,2.95-2.101c1.267-0.967,2.5-1.517,3.7-1.649c-2.233,2-3.367,3.017-3.4,3.05   c-0.5,0.433-1.316,1.333-2.45,2.7c-0.6,0.699-0.533,1.517,0.2,2.449c0.3,0.367,0.634,0.434,1,0.2c0.233-0.1,0.55-0.333,0.95-0.7   c0.233-0.133,1.383-0.967,3.45-2.5c1.366-1,2.6-1.649,3.7-1.949c-0.033,0.366-0.2,0.699-0.5,1c-0.101,0.033-0.4,0.232-0.9,0.6   c-2.4,1.934-4.217,3.366-5.45,4.3c-1.566,1.033-1.899,2.333-1,3.9c0.101,0.166,0.217,0.467,0.351,0.899   c0.232,0.367,0.583,0.567,1.05,0.601c1.2-0.834,3.417-2.533,6.649-5.101c2.834-2.267,5.184-3.967,7.051-5.1   c-0.134,0.566-0.384,1.033-0.75,1.4c-0.5,0.333-0.851,0.583-1.051,0.75c-4.199,3.333-7.083,5.767-8.649,7.3   c-1.567,1.533-2.351,2.55-2.351,3.05c0,0.566,0.783,1.55,2.351,2.95l0.5,0.5c0.733,0.733,1.583,0.733,2.55,0   c4.066-3.233,6.733-5.4,8-6.5c0.667-0.601,1.066-0.95,1.2-1.05c0.533-0.4,1.167-0.7,1.899-0.9c-1.199,1.467-2.982,3.267-5.35,5.4   c-2.533,2.267-4.283,3.949-5.25,5.05c1.9,0.767,3.283,1.149,4.15,1.149c1.433,0,2.699-0.633,3.8-1.899   c0.833-0.934,2.017-1.917,3.55-2.95c0.833-0.6,2.1-1.5,3.8-2.7c0.567-0.467,0.917-0.733,1.05-0.8c0.5-0.267,1.084-0.4,1.75-0.4   l-11.05,9.301c1.434,0.866,2.733,1.283,3.9,1.25c1.133-0.067,2.3-0.634,3.5-1.7c1.033-0.9,2.383-1.934,4.05-3.101   c0.934-0.633,2.333-1.6,4.2-2.899c0.1,0.467,0.017,0.833-0.25,1.1c-0.367,0.233-0.617,0.4-0.75,0.5   c-3.067,2.566-5.333,4.517-6.8,5.851c-0.7,0.699-1.051,1.232-1.051,1.6c0.033,0.366,0.45,1.017,1.25,1.95c0.5,0.6,1,0.783,1.5,0.55   c0.334-0.1,0.75-0.4,1.25-0.9l8.051-6.449c0.199-0.134,0.517-0.384,0.949-0.75c0.467-0.268,1-0.317,1.601-0.15l-8.65,7.45   c-1.433,1.133-2.383,2.033-2.85,2.7c-0.867,1.033-1.367,2.232-1.5,3.6c-0.101,0.9-0.684,2.217-1.75,3.95   c-0.101,0.233-0.25,0.566-0.45,1c-0.167,0.366-0.066,0.75,0.3,1.149c0.667-0.3,1.5-0.833,2.5-1.6c1.134-0.833,1.95-1.4,2.45-1.7   c2.133-1.133,3-2.816,2.6-5.05c-0.199-1.434,0.45-2.634,1.95-3.6c0.967-0.7,1.567-1.084,1.8-1.15c0.733-0.3,1.483-0.267,2.25,0.1   c1.067,0.533,2.301,0.334,3.7-0.6c0.233-0.1,0.583-0.35,1.05-0.75c0.467-0.3,0.917-0.35,1.351-0.15c-0.067,0.5-0.4,0.967-1,1.4   c-0.634,0.5-1,0.95-1.101,1.35c1.567,2.101,2.051,4.467,1.45,7.101c0.367-0.2,1.083-0.733,2.15-1.601   c0.866-0.699,1.717-1.166,2.55-1.399c-1.066,2.233-2.5,3.683-4.3,4.35c-1.934,0.8-3.983,1.967-6.15,3.5   c-2.533,1.934-4.433,3.367-5.7,4.3c-0.533,0.4-0.833,0.634-0.899,0.7c-0.267,0.3-0.333,0.684-0.2,1.15l1.25,0.149   c3.8-0.133,7.316-1.149,10.55-3.05c2.8-1.667,5.567-4.1,8.3-7.3c1.434-1.7,1.684-3.333,0.75-4.9   c-0.5-0.866-0.383-2.166,0.351-3.899c0.967-2.4,1.717-4.2,2.25-5.4c0.866-2.1,1.667-3.833,2.399-5.2c2-3.6,2.283-7.75,0.851-12.449   C65.341,38.44,63.69,34.44,61.891,31.308z M83.69,29.657c0.167-1.167-0.233-1.867-1.2-2.1c-1.1-0.233-1.833,0.05-2.199,0.85   l-0.851,1.8c-5.267,11.867-8.333,18.733-9.2,20.601c-1.732,3.5-3.699,8.166-5.899,14l-0.5,1.449c-0.3,1.601-0.05,2.584,0.75,2.95   c0.833,0.434,1.583,0.134,2.25-0.899c0.7-1.101,1.2-2.067,1.5-2.9c0.467-1.066,2.2-5.066,5.2-12c2.1-4.833,3.933-8.75,5.5-11.75   c0.5-0.967,1.183-2.767,2.05-5.4c0.733-2.366,1.5-4.149,2.3-5.35C83.424,30.808,83.523,30.391,83.69,29.657z M85.49,46.507   c-0.166,0.733-0.383,1.467-0.649,2.2c-0.033,0.2-0.767,2.134-2.2,5.8c-0.9,2.367-1.434,4.384-1.6,6.051   c-0.067,0.8-0.601,1.232-1.601,1.3c-0.467-0.067-0.717-0.25-0.75-0.55c-0.066-0.134-0.017-0.434,0.15-0.9l5.1-14.35   c0.233-0.534,0.533-0.733,0.9-0.601C85.407,45.624,85.624,45.974,85.49,46.507z M75.291,66.657c0.232-0.467,0.6-0.566,1.1-0.3   c0.2,0.166,0.383,0.45,0.55,0.85c-0.233,0.5-0.55,1.267-0.95,2.3c-0.433,0.867-0.699,1.65-0.8,2.351c0,0.233-0.149,0.399-0.45,0.5   c-0.3,0.133-0.6,0.149-0.899,0.05c-0.733-0.267-0.967-0.7-0.7-1.3C73.541,70.074,74.258,68.591,75.291,66.657z M52.141,79.957   c-1.233,1.3-2.566,2.25-4,2.851c0.467-1.034,1.4-2.184,2.8-3.45c1.434-1.3,2.851-2.25,4.25-2.851   C53.891,78.074,52.874,79.224,52.141,79.957z M42.091,24.308c-0.733,0.6-1.117,1.383-1.15,2.35c-0.066,0.6,0.067,1.434,0.4,2.5   c0.399,1.3,1.366,1.883,2.899,1.75c0.801-0.1,1.567-0.45,2.301-1.05c0.732-0.634,1.166-1.283,1.3-1.95   c0.333-1.7-0.317-3.017-1.95-3.95c-0.367-0.233-0.6-0.366-0.7-0.399c-0.167-0.2-0.2-0.45-0.1-0.75c0.133-0.334,0.583-0.5,1.35-0.5   c1.033,0,1.833,0.35,2.4,1.05c0.633,0.767,0.95,2.017,0.95,3.75s-0.317,3-0.95,3.8c-0.7,0.934-1.833,1.616-3.4,2.05   c-1.633,0.467-2.883,0.45-3.75-0.05c-1.267-0.634-2.149-1.583-2.649-2.85c-0.533-1.2-0.617-2.483-0.25-3.851   c0.3-1.533,0.75-2.533,1.35-3c0.6-0.5,1.583-0.684,2.95-0.55C43.124,23.157,42.791,23.707,42.091,24.308z M23.19,22.357   c2.767-1.5,4.583-0.983,5.45,1.55c0.533,1.434,0.566,2.833,0.1,4.2c-0.467,1.399-1.3,2.399-2.5,3c-1.3,0.633-2.717,0.75-4.25,0.35   c-1.467-0.366-2.616-1.149-3.449-2.35c-0.733-1.067-0.917-2.267-0.551-3.601c0.367-1.333,1.15-2.3,2.351-2.899   c0.866-0.367,1.467-0.283,1.8,0.25c0.133,0.333,0.117,0.583-0.05,0.75c-0.067,0.1-0.3,0.3-0.7,0.6c-1.333,0.9-1.667,2.017-1,3.351   c0.767,1.433,1.967,2.033,3.6,1.8c1.601-0.134,2.467-0.95,2.601-2.45c0.133-1.134,0.083-1.95-0.15-2.45   c-0.233-0.566-0.767-1-1.6-1.3c-0.367-0.066-0.65-0.117-0.851-0.15C23.69,22.907,23.424,22.69,23.19,22.357z M21.44,40.757   c-0.467,0.467-1,0.7-1.6,0.7c0.133-0.467,0.483-0.883,1.05-1.25c0.333-0.2,0.85-0.483,1.55-0.85   C21.907,40.157,21.574,40.624,21.44,40.757z M44.391,68.507c-0.5,0.667-0.75,1.567-0.75,2.7c0,2.8,1.117,4.217,3.35,4.25   c2.134,0.101,3.25-1.1,3.351-3.6c0.033-1.3-0.283-2.334-0.95-3.101c-0.7-0.767-1.684-1.166-2.95-1.199   C45.607,67.523,44.924,67.841,44.391,68.507z M10.641,61.407c2.167,2.4,4.566,3.566,7.2,3.5l0.55,0.35v0.301   c-2.267,0.6-4.184,0.566-5.75-0.101c-1.533-0.633-2.9-1.967-4.1-4c-0.2-0.333-0.217-0.616-0.051-0.85   c0.367-0.4,0.768-0.434,1.2-0.101C9.957,60.641,10.273,60.94,10.641,61.407z M26.141,75.407c0.6-1.5,1.533-2.55,2.8-3.15   c-0.133,0.467-0.55,1.667-1.25,3.601c-0.566,1.433-0.899,2.633-1,3.6c-0.033,0.3-0.183,0.517-0.45,0.65   c-0.3,0.033-0.583,0-0.85-0.101c-0.533-0.066-0.717-0.283-0.55-0.649C25.341,77.523,25.773,76.207,26.141,75.407z M25.591,85.857   c0.467-0.067,0.8,0.166,1,0.7c0.899,2.866,3.366,4.866,7.399,6c4.7,1.399,9.5,1.133,14.4-0.801c0.066,0.967-0.184,1.65-0.75,2.051   c-0.333,0.267-0.917,0.482-1.75,0.649c-5.5,0.867-10.2,0.7-14.1-0.5c-2.334-0.733-4.467-2.399-6.4-5   c-0.267-0.333-0.45-0.95-0.55-1.85C24.707,86.44,24.957,86.023,25.591,85.857z M42.791,76.007c-0.5-0.633-1.051-0.833-1.65-0.6   c-0.533,0.167-1.1,0.5-1.7,1c-0.667,0.6-1.167,1.05-1.5,1.35l-3.05,2.5c-1.167,0.9-1.283,1.95-0.35,3.15   c1.066,1.434,2.183,1.733,3.35,0.9c1.7-1.134,4.4-3.117,8.1-5.95c-0.232-0.634-0.816-1.017-1.75-1.15   C43.874,77.141,43.391,76.74,42.791,76.007z"/></g><text x="0" y="115" fill="#000000" font-size="5px" font-weight="bold" font-family="'Helvetica Neue', Helvetica, Arial-Unicode, Arial, Sans-serif">Created by Saeful Muslim</text><text x="0" y="120" fill="#000000" font-size="5px" font-weight="bold" font-family="'Helvetica Neue', Helvetica, Arial-Unicode, Arial, Sans-serif">from the Noun Project</text></svg>