<svg xmlns="http://www.w3.org/2000/svg" xmlns:xlink="http://www.w3.org/1999/xlink" version="1.1" x="0px" y="0px" viewBox="0 0 100 125" style="enable-background:new 0 0 100 100;" xml:space="preserve"><path d="M74.7,11.7c-0.4-0.4-1-0.4-1.4,0l-17,17c-3.8,3.8-4,10-0.4,14l-6,5.5l-6.3-5.7c3.9-5.8,3.3-13.8-1.9-18.9  c-5.6-5.6-21.3-12.2-27.3-6.1c-6,6,0.6,21.8,6.1,27.3c2.9,2.9,6.8,4.4,10.6,4.4c2.9,0,5.8-0.8,8.3-2.5l5.5,6l-5.2,4.8l-0.7-0.7  c-0.4-0.4-1-0.4-1.4,0L14.9,79.5c-2.3,2.3-2.3,6.1,0,8.4c1.2,1.2,2.7,1.7,4.2,1.7s3-0.6,4.2-1.7l22.8-22.8c0.4-0.4,0.4-1,0-1.4  L45.4,63l4.6-5l4.5,4.9l-0.7,0.7c-0.2,0.2-0.3,0.4-0.3,0.7s0.1,0.5,0.3,0.7l22.8,22.8c1.1,1.1,2.6,1.7,4.2,1.7  c1.6,0,3.1-0.6,4.2-1.7c1.1-1.1,1.7-2.6,1.7-4.2s-0.6-3.1-1.7-4.2L62,56.6c-0.4-0.4-1-0.4-1.4,0l-0.7,0.7l-5.1-4.7l5.3-5.8  c1.9,1.7,4.4,2.6,6.8,2.6c2.6,0,5.2-1,7.2-3l17-17c0.4-0.4,0.4-1,0-1.4L74.7,11.7z M39.9,43.8c-5.1,4.6-13,4.4-17.9-0.5  c-5-5-11.1-19.6-6.1-24.5c1.3-1.3,3.3-1.8,5.5-1.8c6.4,0,15.3,4.3,19,8c4.9,4.9,5,12.8,0.5,17.9L39.9,43.8z M21.9,86.5  c-1.5,1.5-4,1.5-5.6,0c-1.5-1.5-1.5-4,0-5.6l22.1-22.1l5.6,5.6L21.9,86.5z M44,61.5l-2.7-2.7l5.1-4.7l2.1,2.3L44,61.5z M61.3,58.8  l22.1,22.1c0.7,0.7,1.2,1.7,1.2,2.8s-0.4,2-1.2,2.8c-1.5,1.5-4.1,1.5-5.6,0L55.8,64.3L61.3,58.8z M58.5,58.8l-2.7,2.7l-5.1-5.6  c0,0,0,0,0,0l-3.4-3.7c0,0,0,0,0,0l-6.1-6.6l0.2-0.2c0.2-0.2,0.3-0.3,0.5-0.5c0.2-0.2,0.3-0.3,0.5-0.5l0.2-0.2l6.8,6.2c0,0,0,0,0,0  l3.4,3.2c0,0,0,0,0,0L58.5,58.8z M53.3,51.3l-1.9-1.7l5.8-5.4l1.3,1.3L53.3,51.3z M72.7,45.1c-3.2,3.2-8.4,3.2-11.6,0l-3.3-3.3  c-3.2-3.2-3.2-8.4,0-11.6L74,13.8l15,15L72.7,45.1z"/><path d="M73,21.4L60.9,33.6c-0.4,0.4-0.4,1,0,1.4c0.2,0.2,0.5,0.3,0.7,0.3s0.5-0.1,0.7-0.3l12.2-12.2c0.4-0.4,0.4-1,0-1.4  S73.4,21,73,21.4z"/><path d="M64.3,38.4c0.2,0.2,0.5,0.3,0.7,0.3s0.5-0.1,0.7-0.3l12.2-12.2c0.4-0.4,0.4-1,0-1.4s-1-0.4-1.4,0L64.3,37  C63.9,37.4,63.9,38,64.3,38.4z"/><path d="M67.7,41.8c0.2,0.2,0.5,0.3,0.7,0.3s0.5-0.1,0.7-0.3l12.2-12.2c0.4-0.4,0.4-1,0-1.4s-1-0.4-1.4,0L67.7,40.4  C67.3,40.8,67.3,41.4,67.7,41.8z"/><ellipse transform="matrix(0.7071 -0.7071 0.7071 0.7071 -52.9532 38.2982)" cx="19.8" cy="83.1" rx="1.4" ry="1.4"/><ellipse transform="matrix(0.7071 -0.7071 0.7071 0.7071 -35.2538 80.8597)" cx="80" cy="83" rx="1.4" ry="1.4"/><ellipse transform="matrix(0.7071 -0.7071 0.7071 0.7071 -17.7473 37.3334)" cx="36.2" cy="40.1" rx="1.4" ry="1.4"/><ellipse transform="matrix(0.7071 -0.7071 0.7071 0.7071 -11.9575 36.3291)" cx="37.9" cy="32.6" rx="1.4" ry="1.4"/><ellipse transform="matrix(0.7071 -0.7071 0.7071 0.7071 -9.5397 31.8466)" cx="33.7" cy="27.4" rx="1.4" ry="1.4"/><ellipse transform="matrix(0.7071 -0.7071 0.7071 0.7071 -15.8046 32.6441)" cx="31.5" cy="35.4" rx="1.4" ry="1.4"/><ellipse transform="matrix(0.7071 -0.7071 0.7071 0.7071 -13.8823 28.0032)" cx="26.9" cy="30.8" rx="1.4" ry="1.4"/><ellipse transform="matrix(0.7071 -0.7071 0.7071 0.7071 -9.1631 25.775)" cx="26.5" cy="23.9" rx="1.4" ry="1.4"/><ellipse transform="matrix(0.7071 -0.7071 0.7071 0.7071 -20.5217 33.4377)" cx="30.1" cy="41.5" rx="1.4" ry="1.4"/><ellipse transform="matrix(0.7071 -0.7071 0.7071 0.7071 -19.4257 28.2405)" cx="24.4" cy="37.6" rx="1.4" ry="1.4"/><ellipse transform="matrix(0.7071 -0.7071 0.7071 0.7071 -15.8942 24.0238)" cx="21.1" cy="31.2" rx="1.4" ry="1.4"/><ellipse transform="matrix(0.7071 -0.7071 0.7071 0.7071 -10.6751 20.7017)" cx="19.7" cy="23.2" rx="1.4" ry="1.4"/><text x="0" y="115" fill="#000000" font-size="5px" font-weight="bold" font-family="'Helvetica Neue', Helvetica, Arial-Unicode, Arial, Sans-serif">Created by Made by Made</text><text x="0" y="120" fill="#000000" font-size="5px" font-weight="bold" font-family="'Helvetica Neue', Helvetica, Arial-Unicode, Arial, Sans-serif">from the Noun Project</text></svg>