<svg xmlns="http://www.w3.org/2000/svg" xmlns:xlink="http://www.w3.org/1999/xlink" version="1.1" x="0px" y="0px" viewBox="0 0 64 80" style="enable-background:new 0 0 64 64;" xml:space="preserve"><style type="text/css">
	.st0{fill-rule:evenodd;clip-rule:evenodd;}
</style><g><path d="M61.7,41.9c-1.3,0-2.3,1-2.3,2.3v5.3c-7.6-5.1-24.3-30.2-24.6-38.3l0-0.2c0-1.3-1-2.3-2.3-2.3H32v0c-1.3,0-2.3,1-2.3,2.3   c0,7.9-17.4,34.2-25,38.8v-5.6c0-1.3-1-2.3-2.3-2.3C1,41.9,0,43,0,44.3V53c0,1.3,1,2.3,2.3,2.3h22.5v0c1,0,1.8-0.6,2.2-1.5   l5.2-14.6L37,53.5c0.3,1,1.2,1.8,2.3,1.8h22.4h0.5v0C63.2,55,64,54.1,64,53v-8.7C64,43,63,41.9,61.7,41.9z M40.9,50.6l-6.5-19.4   c-0.4-1.2-1.7-1.9-2.9-1.5c-0.7,0.2-1.2,0.8-1.4,1.4l0,0l-6.8,19.4H10.7c8.3-7.6,17.3-21.8,21.5-32c4.2,10.2,13.2,24.4,21.5,32   H40.9z"/></g><text x="0" y="79" fill="#000000" font-size="5px" font-weight="bold" font-family="'Helvetica Neue', Helvetica, Arial-Unicode, Arial, Sans-serif">Created by Haseba Studio</text><text x="0" y="84" fill="#000000" font-size="5px" font-weight="bold" font-family="'Helvetica Neue', Helvetica, Arial-Unicode, Arial, Sans-serif">from the Noun Project</text></svg>